<?xml version="1.0" encoding="iso-8859-1"?>
<!-- Generator: Adobe Illustrator 21.0.0, SVG Export Plug-In . SVG Version: 6.00 Build 0)  -->
<svg xmlns="http://www.w3.org/2000/svg" xmlns:xlink="http://www.w3.org/1999/xlink" version="1.1" id="Capa_1" x="0px" y="0px" viewBox="0 0 512 512" style="enable-background:new 0 0 512 512;" xml:space="preserve" width="512" height="512">
<g>
	<g>
		<g>
			<g>
				<g>
					<g>
						<g>
							<g>
								<g>
									<g>
										<circle style="fill:#19CFFC;" cx="256" cy="256" r="256"/>
									</g>
								</g>
							</g>
						</g>
					</g>
				</g>
			</g>
		</g>
	</g>
	<path style="fill:#41B3E5;" d="M259.271,511.958C399.146,510.204,512,396.291,512,256c0-4.561-0.124-9.092-0.36-13.594   L400.5,131.266L61.327,273.585L190.91,403.168l-12.756,27.673L259.271,511.958z"/>
	<g>
		<polygon style="fill:#FFFFFF;" points="400.5,131.266 61.327,273.585 314.397,395.585   "/>
	</g>
	<g>
		<polygon style="fill:#F2F6FC;" points="400.5,131.266 255.905,191.938 255.905,367.387 314.397,395.585   "/>
	</g>
	<g>
		<polygon style="fill:#DCE1EB;" points="400.5,131.266 152.583,317.577 208.708,344.634   "/>
	</g>
	<g>
		<polygon style="fill:#CDD2E1;" points="255.905,239.93 255.905,292.127 400.5,131.266   "/>
	</g>
	<g>
		<polygon style="fill:#F2F6FC;" points="234.489,357.063 178.153,430.841 178.153,329.905   "/>
	</g>
</g>















</svg>
