<svg data-v-6805eed4="" version="1.0" xmlns="http://www.w3.org/2000/svg" xmlns:xlink="http://www.w3.org/1999/xlink" width="100%" height="100%" viewBox="0 0 340.000000 250.000000" preserveAspectRatio="xMidYMid meet" color-interpolation-filters="sRGB" style="margin: auto;"> <rect data-v-6805eed4="" x="0" y="0" width="100%" height="100%" fill="#fef2e4" fill-opacity="1" class="background"></rect> <!----> <g data-v-6805eed4="" fill="#FC5A2A" class="icon-text-wrapper icon-svg-group iconsvg" transform="translate(77.88719177246094,101.25)"><g class="iconsvg-imagesvg" transform="translate(0,6.3079376220703125)"><g><rect fill="#FC5A2A" fill-opacity="0" stroke-width="2" x="0" y="0" width="29.999999999999986" height="34.88412655961114" class="image-rect"></rect> <svg filter="url(#colors1237354930)" x="0" y="0" width="29.999999999999986" height="34.88412655961114" filtersec="colorsf2397458354" class="image-svg-svg primary" style="overflow: visible;"><svg xmlns="http://www.w3.org/2000/svg" data-name="Layer 1" viewBox="92.6431884765625 66.40400695800781 326.4484558105469 379.59600830078125" x="0px" y="0px"><title>Spades</title><path d="M243.46,380.645,224.923,446h62.154l-18.408-64.855c-4.238-2.769-8.483-5.938-12.733-9.22C251.789,375.031,247.627,378,243.46,380.645Z"></path><path d="M124.674,364.342c14.391,14.272,32.509,21.816,52.392,21.816,23.132,0,48.7-10.634,73.956-30.751a8,8,0,0,1,10.054.068C286.7,376.459,311.7,387.1,335.378,387.1a72.519,72.519,0,0,0,52.309-21.9c14.653-14.694,24.7-35.765,29.046-60.936,13.581-77.7-30.436-181.23-159.383-237.492a9.362,9.362,0,0,0-1.342-.368,9.316,9.316,0,0,0-1.317.359C161.728,108.2,76.452,197.643,95.271,304.2,99.833,329,110,349.791,124.674,364.342Z"></path></svg></svg> <defs><filter id="colors1237354930"><feColorMatrix type="matrix" values="0 0 0 0 0  0 0 0 0 0  0 0 0 0 0  0 0 0 1 0" class="icon-fecolormatrix"></feColorMatrix></filter> <filter id="colorsf2397458354"><feColorMatrix type="matrix" values="0 0 0 0 0.99609375  0 0 0 0 0.99609375  0 0 0 0 0.99609375  0 0 0 1 0" class="icon-fecolormatrix"></feColorMatrix></filter> <filter id="colorsb4977691609"><feColorMatrix type="matrix" values="0 0 0 0 0  0 0 0 0 0  0 0 0 0 0  0 0 0 1 0" class="icon-fecolormatrix"></feColorMatrix></filter></defs></g></g> <g transform="translate(37,0)"><g data-gra="path-name" fill-rule="" class="tp-name iconsvg-namesvg"><g transform="scale(1)"><g><path d="M17.95-30.55L17.95-27.25Q17.95-24 14.7-24L14.7-24 13.4-24 13.4 1.5Q13.4 4.75 9.85 4.75 6.3 4.75 6.3 1.5L6.3 1.5 6.3-24 4.5-24Q1.25-24 1.25-27.25L1.25-27.25 1.25-30.55 6.3-30.55 6.3-42.75 13.4-42.75 13.4-30.55 17.95-30.55ZM36.15-2L36.15-2 36.15-5.75 28.5-5.75 29.4-5.1Q32.05-3.25 30.25-1.35L30.25-1.35 35.95-1.45Q36.15-1.6 36.15-2ZM35.75-22L35.75-21.1 39.75-21.1 39.75-22 35.75-22ZM24.85-22L24.85-21.1 29.1-21.1 29.1-22 24.85-22ZM29.1-25.85L29.1-26.8 24.85-26.8 24.85-25.85 29.1-25.85ZM39.75-25.85L39.75-26.8 35.75-26.8 35.75-25.85 39.75-25.85ZM42.6-11.45L46.2-11.45Q48.65-11.45 48.65-9L48.65-9Q48.65-5.75 45.4-5.75L45.4-5.75 42.6-5.75 42.6-1.8Q42.6 0.55 42.05 1.8 41.5 3.05 39.65 3.85L39.65 3.85Q37.8 4.7 35 4.7L35 4.7Q31.75 4.7 30.95 1.55L30.95 1.55Q30.5-1.5 29.75-0.8L29.75-0.8Q27.55 1.55 25-0.45L25-0.45Q23.95-1.4 22.2-2.6L22.2-2.6Q20.25-4.05 21.95-5.75L21.95-5.75 19.25-5.75Q16-5.75 16-9L16-9 16-11.45 36.15-11.45 36.15-12.9 38.1-12.9 36.45-16.5 39.1-16.45Q39.75-16.45 39.75-17.35L39.75-17.35 35.75-16.95Q35.75-13.7 32.4-13.7L32.4-13.7Q29.1-13.7 29.1-17.35L29.1-17.35 24.85-17.35 24.85-16.15Q24.85-12.9 21.8-12.9L21.8-12.9Q18.8-12.9 18.8-16.15L18.8-16.15 18.8-31.3 29.1-31.3 29.1-32.15 21-32.15Q17.75-32.15 17.75-35.4L17.75-35.4 17.75-37.7 29.1-37.7 29.1-42.75 35.75-42.75 35.75-37.7 39.3-37.75Q36.9-39.05 38.55-40.95L38.55-40.95Q40.2-42.9 43.1-41.45L43.1-41.45 45.15-40.35Q47.05-39.4 45.7-37.7L45.7-37.7 47.95-37.7 47.95-35.4Q47.95-32.15 44.7-32.15L44.7-32.15 35.75-32.15 35.75-31.3 46.05-31.3 46.05-16.9Q46.05-15.15 45.6-14.3L45.6-14.3Q45.2-13.5 44.25-13.1L44.25-13.1 43.55-12.75Q42.6-12.65 42.6-11.45L42.6-11.45ZM87.2-12.6L98.15-12.6 98.15-9.55Q98.15-6.3 94.9-6.3L94.9-6.3 87.2-6.3 87.2 1.4Q87.2 4.65 83.45 4.65 79.7 4.65 79.7 1.4L79.7 1.4 79.7-6.3 70.85-6.3Q68.65 1.7 60.4 3.7L60.4 3.7Q57.35 4.8 55.3 1.75L55.3 1.75 55.05 1.4Q52.85-1.05 56-1.95L56-1.95Q60.2-2.75 62.7-6.3L62.7-6.3 55.25-6.3Q52-6.3 52-9.55L52-9.55 52-12.6 64.1-12.6 64.1-16.65 71.4-16.65 71.4-12.6 79.7-12.6 79.7-16.75 87.2-16.75 87.2-12.6ZM58.05-31.95L58.05-31.95 61.25-30.95Q64.35-30.05 62.45-27.45L62.45-27.45 60.65-24.95Q58.45-22.45 58.75-22.9L58.75-22.9Q56.3-20.75 53.65-22.75L53.65-22.75Q51.05-24.8 53.75-26.65L53.75-26.65Q55.6-27.65 58.05-31.95ZM87.55-26.55L87.55-26.55Q85.5-29.05 88.45-30.3 91.4-31.55 93.5-29.1L93.5-29.1Q95.9-25.95 96.25-25.05L96.25-25.05Q97.7-22.1 94.5-20.65L94.5-20.65Q91.35-19.25 90.05-22.25L90.05-22.25Q89.85-23.15 87.55-26.55ZM64.7-16.65L64.7-16.65Q61.85-15.4 60-17.95L60-17.95 59.55-18.55Q57.25-20.9 60.25-22L60.25-22Q63.45-22.9 65.4-26.1L65.4-26.1Q67.05-28.8 67.05-31.75L67.05-31.75 67.05-32.35 55.75-32.35Q52.5-32.35 52.5-35.6L52.5-35.6Q52.5-38.4 55.3-38.4L55.3-38.4 71.45-38.6Q70.1-41.55 73.65-42.35L73.65-42.35Q77.25-43.15 78.75-40.25L78.75-40.25Q78.75-40.55 79.7-38.4L79.7-38.4 97.55-38.4 97.55-35.6Q97.55-32.35 94.3-32.35L94.3-32.35 85-32.35 85-20.4Q85-17.15 81.35-17.15 77.7-17.15 77.7-20.4L77.7-20.4 77.7-32.35 74-32.35 74-31.5Q74-21.3 64.7-16.65ZM112.2-15.85L112.2-32 109.5-32 109.5-15.85Q109.5-14.9 110.45-14.9L110.45-14.9 111.25-14.9Q112.2-14.9 112.2-15.85L112.2-15.85ZM102.95-38.65L118.85-38.65 118.85-11.5Q118.85-8.25 115.6-8.25L115.6-8.25 106.2-8.25Q102.95-8.25 102.95-11.5L102.95-11.5 102.95-38.65ZM130.8-20.8L130.8-33.25 128.4-33.25 128.4-20.8 130.8-20.8ZM137.35-20.8L139.1-20.8Q140.05-20.8 140.05-21.75L140.05-21.75 140.05-33.25 137.35-33.25 137.35-20.8ZM131.5-2.6L131.5-2.6 139.35-2.6Q141.15-2.6 141.75-3.7L141.75-3.7Q142.4-4.8 142.75-8.45L142.75-8.45 146.3-6.95Q149.25-5.7 148.2-2.65L148.2-2.65 146.6 1.9Q144.65 4.05 140.1 4.05L140.1 4.05 130.65 4.05Q125.2 4.05 123.25 1.95L123.25 1.95Q121.3-0.1 121.3-6.15L121.3-6.15 121.3-39.9 147.1-39.9 147.1-17.5Q147.1-14.25 143.85-14.25L143.85-14.25 128.4-14.25 128.4-6.15Q128.4-3.75 128.9-3.15L128.9-3.15Q129.4-2.6 131.5-2.6Z" transform="translate(-1.25, 42.75)"></path></g> <!----> <!----> <!----> <!----> <!----> <!----> <!----></g></g> <!----></g></g><defs v-gra="od"></defs></svg>